# AST/ASF file generated using VICON BodyLanguage
# -----------------------------------------------
:version 1.10
:name VICON
:units
  mass 1.0
  length 0.45
  angle deg
:documentation
   .ast/.asf automatically generated from VICON data using
   VICON BodyBuilder and BodyLanguage model FoxedUp or BRILLIANT.MOD
:root
   order TX TY TZ RX RY RZ
   axis XYZ
   position 0 0 0  
   orientation 0 0 0 
:bonedata
  begin
     id 1 
     name lhipjoint
     direction 0.671379 -0.66392 0.329334 
     length 2.38647 
     axis 0 0 0  XYZ
  end
  begin
     id 2 
     name lfemur
     direction 0.34202 -0.939693 0  
     length 6.48179  
     axis 0 0 20  XYZ
    dof rx ry rz
    limits (-160.0 20.0)
           (-70.0 70.0)
           (-60.0 70.0)
  end
  begin
     id 3 
     name ltibia
     direction 0.34202 -0.939693 0   
     length 6.86524   
     axis 0 0 20   XYZ
    dof rx
    limits (-10.0 170.0)
  end
  begin
     id 4 
     name lfoot
     direction 0.204886 -0.562919 0.800715   
     length 1.73031   
     axis -90 7.62852e-016 20   XYZ
    dof rx rz
    limits (-45.0 90.0)
           (-70.0 20.0)
  end
  begin
     id 5 
     name ltoes
     direction 1.53548e-011 -4.21841e-011 1   
     length 0.828161   
     axis -90 7.62852e-016 20   XYZ
    dof rx
    limits (-90.0 20.0)
  end
  begin
     id 6 
     name rhipjoint
     direction -0.662732 -0.670855 0.332775   
     length 2.3618  
     axis 0 0 0  XYZ 
  end
  begin
     id 7 
     name rfemur
     direction -0.34202 -0.939693 0   
     length 6.3025   
     axis 0 0 -20   XYZ
    dof rx ry rz
    limits (-160.0 20.0)
           (-70.0 70.0)
           (-70.0 60.0)
  end
  begin
     id 8 
     name rtibia
     direction -0.34202 -0.939693 0   
     length 6.8732   
     axis 0 0 -20   XYZ
    dof rx
    limits (-10.0 170.0)
 end
 begin
     id 9 
     name rfoot
     direction -0.173856 -0.477665 0.861168   
     length 1.54784  
     axis -90 -7.62852e-016 -20   XYZ
    dof rx rz
    limits (-45.0 90.0)
           (-20.0 70.0)
  end
  begin
     id 10 
     name rtoes
     direction -1.53562e-011 -4.21802e-011 1   
     length 0.759618   
     axis -90 -7.62852e-016 -20   XYZ
    dof rx
    limits (-90.0 20.0)
  end
  begin
     id 11 
     name lowerback
     direction -0.0278357 0.999497 -0.0151789   
     length 1.97203   
     axis 0 0 0   XYZ
    dof rx ry rz
    limits (-20.0 45.0)
           (-30.0 30.0)
           (-30.0 30.0)
  end
  begin
     id 12 
     name upperback
     direction -0.00360622 0.997542 0.0699804   
     length 1.94709   
     axis 0 0 0   XYZ
    dof rx ry rz
    limits (-20.0 45.0)
           (-30.0 30.0)
           (-30.0 30.0)
  end
  begin
     id 13 
     name thorax
     direction 0.00907706 0.997048 0.0762461   
     length 1.95722   
     axis 0 0 0   XYZ
    dof rx ry rz
    limits (-20.0 45.0)
           (-30.0 30.0)
           (-30.0 30.0)
  end
  begin
     id 14 
     name lowerneck
     direction -0.0481835 0.99872 -0.0153927   
     length 1.63078   
     axis 0 0 0   XYZ
    dof rx ry rz
    limits (-20.0 45.0)
           (-30.0 30.0)
           (-30.0 30.0)
  end
  begin
     id 15 
     name upperneck
     direction 0.0859716 0.979226 -0.183644   
     length 1.62591   
     axis 0 0 0   XYZ
    dof rx ry rz
    limits (-20.0 45.0)
           (-30.0 30.0)
           (-30.0 30.0)
  end
  begin
     id 16
     name head
     direction 0.0324821 0.997629 -0.0606773  
     length 1.64811  
     axis 0 0 0   XYZ
    dof rx ry rz
    limits (-20.0 45.0)
           (-30.0 30.0)
           (-30.0 30.0)
  end
  begin
     id 17 
     name lclavicle
     direction 0.939609 0.311019 0.142835  
     length 3.70647  
     axis 0 0 0   XYZ
    dof ry rz
    limits (-20.0 10.0)
           (0.0 20.0)
  end
  begin
     id 18 
     name lhumerus
     direction 1 -4.48963e-011 -1.59838e-027   
     length 4.59207   
     axis 180 -30 -90   XYZ
    dof rx ry rz
    limits (-60.0 90.0)
           (-90.0 90.0)
           (-90.0 90.0)
  end
  begin
     id 19
     name lradius
     direction 1 -4.48957e-011 -1.3483e-026   
     length 2.98109   
     axis 180 -30 -90   XYZ
    dof rx
    limits (-10.0 170.0)
  end
  begin
     id 20
     name lwrist
     direction 1 -4.48954e-011 -3.11579e-026   
     length 1.49055   
     axis 2.00652e-014 90 90   XYZ
    dof ry
    limits (-180.0 0.0)
 end
  begin
     id 21 
     name lhand
     direction 1 -4.4911e-011 -6.23158e-026   
     length 0.480203   
     axis 3.97628e-014 90 90   XYZ
    dof rx rz
    limits (-90.0 90.0)
           (-45.0 45.0)
  end
  begin
     id 22 
     name lfingers
     direction 1 -4.48893e-011 -1.24632e-025   
     length 0.387152   
     axis 7.95256e-014 90 90   XYZ
    dof rx
    limits (0.0 90.0)
  end
  begin
     id 23
     name lthumb
     direction 0.707107 -6.35013e-011 0.707107   
     length 0.555875   
     axis -90 45 2.85299e-015   XYZ
    dof rx rz
    limits (-45.0 45.0)
           (-45.0 45.0)
  end
  begin
     id 24 
     name rclavicle
     direction -0.950396 0.30392 0.0661859   
     length 3.70894  
     axis 0 0 0   XYZ 
    dof ry rz
    limits (-10.0 20.0)
           (-20.0 0.0)
  end
  begin
     id 25 
     name rhumerus
     direction -1 -4.48957e-011 -2.96677e-027  
     length 4.76508   
     axis 180 30 90   XYZ
    dof rx ry rz
    limits (-90.0 60.0)
           (-90.0 90.0)
           (-90.0 90.0)
  end
  begin
     id 26 
     name rradius
     direction -1 -4.48974e-011 -1.44501e-026   
     length 2.78902   
     axis 180 30 90   XYZ
    dof rx
    limits (-10.0 170.0)
  end
  begin
     id 27 
     name rwrist
     direction -1 -4.48978e-011 -3.11579e-026   
     length 1.39451   
     axis 2.00652e-014 -90 -90   XYZ
    dof ry
    limits (-180.0 0.0)
  end
  begin
     id 28
     name rhand
     direction -1 -4.48956e-011 -6.23158e-026   
     length 0.721303   
     axis 3.97628e-014 -90 -90   XYZ
    dof rx rz
    limits (-90.0 90.0)
           (-45.0 45.0)
  end
  begin
     id 29
     name rfingers
     direction -1 -4.4899e-011 -1.24632e-025   
     length 0.581533   
     axis 7.95256e-014 -90 -90   XYZ
    dof rx
    limits (0.0 90.0)
  end
  begin
     id 30
     name rthumb
     direction -0.707107 -6.34911e-011 0.707107   
     length 0.834968   
     axis -90 -45 -2.85299e-015   XYZ
    dof rx rz
    limits (-45.0 45.0)
           (-45.0 45.0)
  end
:hierarchy
  begin
    root lhipjoint rhipjoint lowerback
    lhipjoint lfemur
    lfemur ltibia
    ltibia lfoot
    lfoot ltoes
    rhipjoint rfemur
    rfemur rtibia
    rtibia rfoot
    rfoot rtoes
    lowerback upperback
    upperback thorax
    thorax lowerneck lclavicle rclavicle
    lowerneck upperneck
    upperneck head
    lclavicle lhumerus
    lhumerus lradius
    lradius lwrist
    lwrist lhand lthumb
    lhand lfingers
    rclavicle rhumerus
    rhumerus rradius
    rradius rwrist
    rwrist rhand rthumb
    rhand rfingers
  end

#!OML:ASF I:\salsa\salsa 7_09\Patient 1\Session 1\dancerfemale.ASF
:FULLY-SPECIFIED
:DEGREES
111
root 20.3309 15.4106 -1.37255 -198.076 -81.6424 200.744
lowerback 0.733777 -0.550801 -0.729222
upperback -6.1359 -0.930633 -0.245582
thorax -6.78102 -0.488984 0.220867
lowerneck -4.64874 -0.239615 -6.57099
upperneck 14.2895 -1.62844 11.6915
head 5.15437 -0.54696 4.66626
rclavicle -5.46658e-015 -1.59028e-015
rhumerus -41.4657 -7.10102 -96.2938
rradius 56.5761
rwrist -11.3499
rhand 8.78458 52.0719
rfingers 7.12502
rthumb 33.9727 25.2821
lclavicle -5.46658e-015 -1.59028e-015
lhumerus -49.371 23.9225 70.8295
lradius 35.2499
lwrist -31.1359
lhand -20.8131 38.8094
lfingers 7.12502
lthumb 5.55481 68.7166
rfemur -13.587 -1.44276 30.9939
rtibia 34.4277
rfoot -26.529 -2.07511
rtoes -0.660967
lfemur -29.2936 8.4273 -15.8961
ltibia 72.563
lfoot -18.1013 17.8735
ltoes -9.58478
112
root 20.2564 15.4162 -1.38561 -197.355 -81.7737 199.982
lowerback 0.703894 -0.321437 -0.865772
upperback -6.12299 -0.62735 -0.247979
thorax -6.75125 -0.33095 0.274386
lowerneck -4.44601 -0.445801 -6.72139
upperneck 14.2555 -1.89459 11.6321
head 5.13545 -0.694969 4.65669
rclavicle -2.62396e-014 -1.35174e-014
rhumerus -41.2246 -6.20486 -96.9967
rradius 58.3988
rwrist -11.7727
rhand 8.70613 52.3162
rfingers 7.12502
rthumb 33.8981 25.5099
lclavicle -2.62396e-014 -1.35174e-014
lhumerus -49.5468 23.8113 69.7551
lradius 35.8266
lwrist -31.5816
lhand -19.8809 38.4066
lfingers 7.12502
lthumb 6.45475 68.2883
rfemur -13.2389 -1.49844 30.8567
rtibia 34.4356
rfoot -26.7369 -2.27166
rtoes -2.11634
lfemur -30.0587 7.46748 -15.8501
ltibia 71.2463
lfoot -19.4086 17.6188
ltoes -11.7509
113
root 20.1808 15.4235 -1.39769 -196.86 -81.7867 199.527
lowerback 0.592779 -0.0851012 -0.905583
upperback -6.14138 -0.310204 -0.218493
thorax -6.70967 -0.171385 0.306236
lowerneck -4.44037 -0.610822 -6.98137
upperneck 14.424 -2.11602 11.6507
head 5.20969 -0.814374 4.69763
rclavicle 1.78906e-015 -7.95139e-016
rhumerus -41.0319 -5.2468 -97.7398
rradius 60.3121
rwrist -12.0612
rhand 8.33593 52.6721
rfingers 7.12502
rthumb 33.5464 25.7888
lclavicle 1.78906e-015 -7.95139e-016
lhumerus -49.6204 23.3432 69.0443
lradius 36.5687
lwrist -31.2151
lhand -18.1297 35.41
lfingers 7.12502
lthumb 8.14517 65.233
rfemur -12.8742 -1.19215 30.8145
rtibia 34.2944
rfoot -26.8029 -2.58377
rtoes -2.58898
lfemur -30.7887 6.58857 -15.6994
ltibia 69.7195
lfoot -20.5538 17.3803
ltoes -14.3417
114
root 20.1041 15.4359 -1.40416 -195.671 -81.7214 198.506
lowerback 0.313234 0.197692 -0.876711
upperback -6.16358 0.0684817 -0.250857
thorax -6.57607 0.0117371 0.232517
lowerneck -4.39242 -0.821141 -7.12568
upperneck 14.4581 -2.38289 11.5664
head 5.23938 -0.957646 4.68017
rclavicle -1.98785e-016 5.1684e-015
rhumerus -40.8175 -4.10387 -98.5295
rradius 62.3163
rwrist -12.4183
rhand 7.63504 52.9455
rfingers 7.12502
rthumb 32.88 25.92
lclavicle -1.98785e-016 5.1684e-015
lhumerus -49.4289 22.8995 68.3878
lradius 37.2569
lwrist -30.6886
lhand -18.3701 36.6236
lfingers 7.12502
lthumb 7.91312 66.4555
rfemur -12.6045 -0.746898 30.6695
rtibia 34.0313
rfoot -26.6857 -2.79577
rtoes -1.53824
lfemur -31.5247 5.62406 -15.6388
ltibia 68.0399
lfoot -21.6452 17.1311
ltoes -17.2991
115
root 20.0285 15.4503 -1.40841 -195.135 -81.7121 198.015
lowerback 0.181523 0.540808 -0.77295
upperback -6.17374 0.528989 -0.326808
thorax -6.51381 0.231363 0.0686411
lowerneck -4.02366 -1.11019 -6.94121
upperneck 14.1918 -2.74209 11.2431
head 5.12562 -1.15508 4.51938
rclavicle 1.799e-014 1.23246e-014
rhumerus -40.5828 -3.18268 -99.2306
rradius 64.4053
rwrist -12.8337
rhand 6.79373 53.1065
rfingers 7.12502
rthumb 32.0793 25.9165
lclavicle 1.799e-014 1.23246e-014
lhumerus -49.1263 22.4851 67.5605
lradius 37.7775
lwrist -30.4237
lhand -17.7265 36.5822
lfingers 7.12502
lthumb 8.53426 66.3898
rfemur -12.1417 -0.220446 30.5826
rtibia 33.6803
rfoot -26.6423 -3.18014
rtoes -0.918018
lfemur -32.0353 4.47654 -15.4757
ltibia 66.2659
lfoot -22.8044 16.3829
ltoes -19.263
116
root 19.9576 15.4635 -1.40608 -195.593 -81.9457 198.38
lowerback 0.29759 0.713437 -0.586732
upperback -6.14946 0.771239 -0.309779
thorax -6.55396 0.343223 -0.0333203
lowerneck -3.99876 -1.24941 -7.25273
upperneck 14.2014 -2.92222 11.3642
head 5.1466 -1.25195 4.60155
rclavicle -9.93923e-015 -8.34896e-015
rhumerus -40.249 -2.15742 -99.8528
rradius 66.3293
rwrist -13.1473
rhand 6.17243 53.4445
rfingers 7.12502
rthumb 31.4876 26.1371
lclavicle -9.93923e-015 -8.34896e-015
lhumerus -48.9266 22.5498 66.528
lradius 38.2137
lwrist -30.5438
lhand -15.9156 34.6847
lfingers 7.12502
lthumb 10.2816 64.4134
rfemur -11.5012 0.136791 30.5558
rtibia 33.2803
rfoot -26.6273 -3.75175
rtoes -1.21483
lfemur -32.4031 3.15913 -15.2445
ltibia 64.4363
lfoot -23.6286 15.1522
ltoes -20.9634
117
root 19.8904 15.4769 -1.40953 -195.787 -81.9422 198.482
lowerback 0.396464 1.00837 -0.502828
upperback -6.15283 1.17311 -0.278256
thorax -6.6154 0.539538 -0.0734554
lowerneck -3.68002 -1.41755 -7.35699
upperneck 14.0125 -3.13126 11.2928
head 5.05521 -1.37419 4.58274
rclavicle 7.7526e-015 8.34896e-015
rhumerus -39.9384 -1.46929 -100.325
rradius 68.2032
rwrist -13.1025
rhand 5.84844 53.8284
rfingers 7.12502
rthumb 31.1789 26.4612
lclavicle 7.7526e-015 8.34896e-015
lhumerus -48.5505 22.4535 65.6549
lradius 38.6343
lwrist -31.1512
lhand -16.5242 35.9344
lfingers 7.12502
lthumb 9.69438 65.6913
rfemur -10.8378 0.424538 30.5873
rtibia 32.8304
rfoot -26.399 -4.1375
rtoes -1.47656
lfemur -32.6613 2.22585 -14.9396
ltibia 62.5997
lfoot -24.0886 13.6908
ltoes -22.4837
118
root 19.8229 15.488 -1.40588 -196.414 -82.0327 198.883
lowerback 0.566843 1.22753 -0.296818
upperback -6.05673 1.48347 -0.2533
thorax -6.60737 0.685575 -0.184466
lowerneck -3.49267 -1.58885 -7.53098
upperneck 13.8559 -3.33647 11.2444
head 4.99767 -1.49143 4.58403
rclavicle 1.19271e-015 -1.98785e-015
rhumerus -39.432 -0.679735 -100.802
rradius 69.9344
rwrist -12.8175
rhand 5.50763 54.3369
rfingers 7.12502
rthumb 30.854 26.9077
lclavicle 1.19271e-015 -1.98785e-015
lhumerus -47.9872 22.5707 64.7192
lradius 38.9193
lwrist -31.9723
lhand -15.8212 37.2525
lfingers 7.12502
lthumb 10.3726 66.9766
rfemur -10.0708 0.111666 30.5594
rtibia 32.3581
rfoot -26.2438 -4.07674
rtoes -1.77526
lfemur -32.7318 1.23323 -14.6612
ltibia 60.8148
lfoot -24.472 12.0721
ltoes -23.2722
119
root 19.7527 15.5004 -1.39843 -196.646 -82.1179 198.87
lowerback 0.670352 1.4574 -0.114616
upperback -5.92712 1.80663 -0.25915
thorax -6.52293 0.8389 -0.313604
lowerneck -3.54006 -1.76123 -7.60374
upperneck 13.8698 -3.54596 11.136
head 5.03128 -1.60006 4.54937
rclavicle -1.0138e-014 1.59028e-015
rhumerus -38.7278 0.106829 -101.23
rradius 71.4858
rwrist -12.3101
rhand 5.19206 55.0139
rfingers 7.12502
rthumb 30.5531 27.5282
lclavicle -1.0138e-014 1.59028e-015
lhumerus -47.2878 22.8379 63.6501
lradius 38.9382
lwrist -32.5554
lhand -15.3427 37.5557
lfingers 7.12502
lthumb 10.8342 67.2562
rfemur -9.29439 -0.386787 30.4167
rtibia 31.8714
rfoot -26.0916 -3.77825
rtoes -2.33723
lfemur -32.6783 0.293464 -14.4815
ltibia 59.1022
lfoot -24.9237 10.4131
ltoes -24.8363
120
root 19.6816 15.515 -1.39018 -196.132 -82.1175 198.134
lowerback 0.73234 1.69947 -0.017336
upperback -5.82474 2.14093 -0.258795
thorax -6.44511 1.00195 -0.388796
lowerneck -3.64759 -1.90217 -7.71755
upperneck 13.9647 -3.70418 10.9761
head 5.09483 -1.68589 4.50852
rclavicle -1.93815e-014 3.57812e-015
rhumerus -38.0882 0.896922 -101.598
rradius 73.1532
rwrist -11.4595
rhand 4.90107 55.604
rfingers 7.12502
rthumb 30.2756 28.067
lclavicle -1.93815e-014 3.57812e-015
lhumerus -46.5816 23.3445 62.4621
lradius 38.8072
lwrist -33.1541
lhand -14.4581 38.0723
lfingers 7.12502
lthumb 11.6873 67.7263
rfemur -8.51319 -0.3392 30.2351
rtibia 31.3731
rfoot -25.7762 -3.83627
rtoes -2.59739
lfemur -32.5124 -0.509541 -14.4255
ltibia 57.4798
lfoot -25.3004 8.80474
ltoes -27.4072
